<?xml version="1.0" encoding="utf-8"?>
<!DOCTYPE svg PUBLIC "-//W3C//DTD SVG 1.1//EN" "http://www.w3.org/Graphics/SVG/1.1/DTD/svg11.dtd">
<svg version="1.1" id="Layer_1" xmlns="http://www.w3.org/2000/svg" xmlns:xlink="http://www.w3.org/1999/xlink" x="0px" y="0px"
	 width="100px" height="100px" viewBox="0 0 100 100" style="enable-background:new 0 0 100 100;" xml:space="preserve">
<path style="fill:#F89B45;" d="M100,94c0,3.313-2.687,6-6,6H6c-3.313,0-6-2.687-6-6V6c0-3.313,2.687-6,6-6h88c3.313,0,6,2.687,6,6
	V94z"/>
<g>
	<path style="fill:#FFFFFF;" d="M88,27.25v47.5c0,1.719,0,6.25,0,6.25s-4.531,0-6.25,0h-62.5C17.531,81,13,81,13,81s0-4.531,0-6.25
		v-47.5c0-1.719,0-6.25,0-6.25s4.531,0,6.25,0h62.5c1.719,0,6.25,0,6.25,0S88,25.531,88,27.25z M81.75,26h-62.5
		C18.911,26,18,26,18,26s0,0.912,0,1.25v47.5V76c0,0,0.911,0,1.25,0h62.5c0.338,0,1.25,0,1.25,0s0-0.911,0-1.25v-47.5
		c0-0.338,0-1.25,0-1.25S82.088,26,81.75,26z M35.812,33.188C37.271,34.646,38,36.417,38,38.5c0,2.084-0.729,3.854-2.188,5.312
		C34.354,45.271,32.583,46,30.5,46c-2.084,0-3.854-0.729-5.312-2.188C23.729,42.354,23,40.584,23,38.5
		c0-2.083,0.729-3.854,2.188-5.312C26.646,31.729,28.416,31,30.5,31C32.583,31,34.354,31.729,35.812,33.188z M78,53.5V71H23v-7.5
		L35.5,51l6.25,6.25l20-20L78,53.5z"/>
</g>
</svg>
